# xmcd CD database file
#
# Track frame offsets:
#	150
#	20162
#	38267
#
# Disc length: 774 seconds
#
# Revision: 0
# Processed by: cddbd v1.5PL3 Copyright (c) Steve Scherf et al.
# Submitted via: CDex 1.51
#
DISCID=18030403
DTITLE=Local Bus - 桜見丘
DYEAR=2004
DGENRE=JPop
TTITLE0=桜見丘
TTITLE1=my wish
TTITLE2=桜見丘(Instrumental)
EXTD=YEAR: 2004
EXTT0=
EXTT1=
EXTT2=
PLAYORDER=
